<svg fill="#ffffff" xmlns="http://www.w3.org/2000/svg"  viewBox="0 0 24 24" width="24px" height="24px"><path d="M 12 22 C 11.902344 22 11.675781 22.003906 11.574219 22 L 13.574219 16.5 L 16.386719 16.5 C 16.882813 16.5 17.421875 16.121094 17.59375 15.65625 L 19.96875 9.3125 C 20.328125 8.316406 19.757813 7.5 18.695313 7.5 L 14.796875 7.5 L 11.535156 16.628906 L 9.679688 21.726563 C 5.273438 20.679688 2 16.722656 2 12 C 2 7.410156 5.089844 3.546875 9.300781 2.367188 L 7.386719 7.632813 L 4.074219 16.5 L 6.195313 16.5 L 8.984375 9 L 10.574219 9 L 7.785156 16.5 L 9.746094 16.5 L 12.464844 9.3125 C 12.828125 8.316406 12.257813 7.5 11.199219 7.5 L 9.574219 7.5 L 11.550781 2.011719 C 11.699219 2.003906 11.851563 2 12 2 C 17.523438 2 22 6.476563 22 12 C 22 17.519531 17.523438 22 12 22 Z M 18.074219 9 L 16.480469 9 L 14.226563 15 L 15.820313 15 Z"/></svg>