<svg id="Слой_1" data-name="Слой 1" xmlns="http://www.w3.org/2000/svg" viewBox="0 0 31 31"><defs><style>.cls-1{fill:#fff;}</style></defs><rect class="cls-1" x="4.5" y="4.5" width="11" height="11"/><path class="cls-1" d="M17,7V17H7V7H17m1-1H6V18H18V6Z" transform="translate(-2 -2)"/><rect class="cls-1" x="19.5" y="4.5" width="11" height="11"/><path class="cls-1" d="M32,7V17H22V7H32m1-1H21V18H33V6Z" transform="translate(-2 -2)"/><rect class="cls-1" x="19.5" y="19.5" width="11" height="11"/><path class="cls-1" d="M32,22V32H22V22H32m1-1H21V33H33V21Z" transform="translate(-2 -2)"/><rect class="cls-1" x="4.5" y="19.5" width="11" height="11"/><path class="cls-1" d="M17,22V32H7V22H17m1-1H6V33H18V21Z" transform="translate(-2 -2)"/><rect class="cls-1" x="4" width="12" height="1"/><polygon class="cls-1" points="16 0 4 0 4 1 16 1 16 0 16 0"/><rect class="cls-1" x="19" width="12" height="1"/><polygon class="cls-1" points="31 0 19 0 19 1 31 1 31 0 31 0"/><path class="cls-1" d="M2.5,17.5Z" transform="translate(-2 -2)"/><polygon class="cls-1" points="1 4 0 4 0 16 1 16 1 4 1 4"/><path class="cls-1" d="M2.5,32.5Z" transform="translate(-2 -2)"/><polygon class="cls-1" points="1 19 0 19 0 31 1 31 1 19 1 19"/></svg>